<?xml version="1.0" encoding="UTF-8"?>
<svg version="1.1" xmlns="http://www.w3.org/2000/svg" width="24" height="24">
<path d="M0 0 C3.12578143 1.6720747 5.39281175 3.7856235 7 7 C7.51512617 11.09157355 7.94367269 15.23589546 5.953125 18.95703125 C3.55501226 21.85592636 1.60351712 23.79811835 -2.171875 24.2734375 C-9.98876369 24.58137554 -9.98876369 24.58137554 -13.5625 21.625 C-17.3057723 17.59378368 -17.39037018 14.90519941 -17.359375 9.55078125 C-16.78039966 5.44131496 -15.00085071 3.78650423 -12 1 C-8.27533151 -0.86233425 -4.05504687 -0.57130829 0 0 Z " fill="#BBC3FB" transform="translate(17,0)"/>
<path d="M0 0 C4.81826218 0.84530916 6.34029694 1.93125503 9.5625 5.625 C10.125 9.25 10.125 9.25 9.5625 12.625 C8.0625 14.5625 8.0625 14.5625 6.5625 15.625 C4.5625 13.875 4.5625 13.875 2.5625 11.625 C2.5625 10.305 2.5625 8.985 2.5625 7.625 C1.5725 7.955 0.5825 8.285 -0.4375 8.625 C-0.746875 9.429375 -1.05625 10.23375 -1.375 11.0625 C-2.4375 13.625 -2.4375 13.625 -4.5625 14.9375 C-5.490625 15.2778125 -5.490625 15.2778125 -6.4375 15.625 C-8.93781654 11.87452518 -8.97353554 10.06643734 -8.4375 5.625 C-5.86890902 1.96670376 -4.41498801 0.80272509 0 0 Z " fill="#F43679" transform="translate(11.4375,2.375)"/>
<path d="M0 0 C0 0.99 0 1.98 0 3 C-1.1446875 3.4021875 -1.1446875 3.4021875 -2.3125 3.8125 C-5.70185318 5.27626834 -5.70185318 5.27626834 -8 8 C-8.5378374 12.14903134 -8.44164777 14.27443581 -6.25 17.875 C-4.03839103 19.96374181 -2.97249386 20.68151851 0 21 C0 21.99 0 22.98 0 24 C-4.38334042 23.8281043 -6.51975534 23.39850089 -9.9375 20.5625 C-12.49066595 17.04235425 -12.70565603 13.67109204 -12.5 9.41015625 C-11.68318836 5.4728689 -9.92240049 3.71365759 -7 1 C-4.53721199 -0.231394 -2.7204945 -0.07159196 0 0 Z " fill="#D6DBFB" transform="translate(12,0)"/>
<path d="M0 0 C0.99 0 1.98 0 3 0 C3.268125 0.7425 3.53625 1.485 3.8125 2.25 C4.94229421 4.86636554 6.20893202 6.80187111 8 9 C4.36733941 11.32490278 1.23998354 11.39259107 -3 11 C-3.66 10.01 -4.32 9.02 -5 8 C-4.54625 7.608125 -4.0925 7.21625 -3.625 6.8125 C-1.72357081 4.69167513 -0.93795972 2.66957765 0 0 Z " fill="#AEACFA" transform="translate(11,10)"/>
<path d="M0 0 C2.5 1.125 2.5 1.125 5 3 C5.5 6 5.5 6 5 9 C3.5 10.875 3.5 10.875 2 12 C1.01 11.67 0.02 11.34 -1 11 C-2.50662097 7.98675805 -2.17770373 5.31713623 -2 2 C-1.34 1.34 -0.68 0.68 0 0 Z " fill="#F8C05A" transform="translate(5,6)"/>
<path d="M0 0 C0.99 0.66 1.98 1.32 3 2 C3.66932271 8.13545817 3.66932271 8.13545817 1.5 10.9375 C1.005 11.288125 0.51 11.63875 0 12 C-2.0625 10.3125 -2.0625 10.3125 -4 8 C-3.92509796 4.92901621 -3.44344796 3.51439964 -1.4375 1.1875 C-0.963125 0.795625 -0.48875 0.40375 0 0 Z " fill="#65518F" transform="translate(18,6)"/>
<path d="M0 0 C1.98 1.65 3.96 3.3 6 5 C2.375 8 2.375 8 -1 8 C-1.04241723 5.66705225 -1.04092937 3.33297433 -1 1 C-0.67 0.67 -0.34 0.34 0 0 Z " fill="#7E66F4" transform="translate(13,13)"/>
<path d="M0 0 C2.5 1.3125 2.5 1.3125 5 3 C5 3.99 5 4.98 5 6 C2.69 6 0.38 6 -2 6 C-1.125 1.125 -1.125 1.125 0 0 Z " fill="#FE993D" transform="translate(5,6)"/>
<path d="M0 0 C1.32 0 2.64 0 4 0 C4 2.31 4 4.62 4 7 C3.01 7.495 3.01 7.495 2 8 C0.68 6.68 -0.64 5.36 -2 4 C-1.34 2.68 -0.68 1.36 0 0 Z " fill="#FD6C9A" transform="translate(8,3)"/>
<path d="M0 0 C2.31 0 4.62 0 7 0 C6.67 1.65 6.34 3.3 6 5 C3 5 3 5 1.3125 3.625 C0 2 0 2 0 0 Z " fill="#4A3574" transform="translate(14,12)"/>
</svg>
